# xmcd CD database file
#
# Track frame offsets:
#	150
#	15126
#	27628
#	40440
#	51534
#	68746
#	87357
#	100599
#	116384
#
# Disc length: 1853 seconds
#
# Revision: 0
# Processed by: cddbd v1.5.2PL0 Copyright (c) Steve Scherf et al.
# Submitted via: CDex 1.70beta2
#
DISCID=6d073b09
DTITLE=早川えみ - Twilight in Jazz
DYEAR=2009
DGENRE=Jazz
TTITLE0=Moon river
TTITLE1=Blue moon
TTITLE2=I'll close my eyes
TTITLE3=It's a lovely day today
TTITLE4=Every breath you take
TTITLE5=Sunday morning
TTITLE6=Love theme from "Spartacus"
TTITLE7=Alice in wonderland
TTITLE8=Both sides now
EXTD=YEAR: 2009
EXTT0=
EXTT1=
EXTT2=
EXTT3=
EXTT4=
EXTT5=
EXTT6=
EXTT7=
EXTT8=
PLAYORDER=
